<svg xmlns="http://www.w3.org/2000/svg" width="420" height="420" viewBox="0 0 420 420">
  <defs>
    <!-- subtle paper grain -->
    <filter id="grain">
      <feTurbulence type="fractalNoise" baseFrequency="0.9" numOctaves="2" stitchTiles="stitch"></feTurbulence>
      <feColorMatrix type="matrix" values="
        1 0 0 0 0
        0 1 0 0 0
        0 0 1 0 0
        0 0 0 0.06 0"></feColorMatrix>
    </filter>

    <!-- diagonal stripe pattern -->
    <pattern id="p" patternUnits="userSpaceOnUse" width="120" height="120" patternTransform="rotate(-25)">
      <!-- stripe centerline -->
      <path d="M0 60H120" stroke="rgba(120,102,78,0.10)" stroke-width="1" fill="none"></path>

      <!-- motif sequence along the stripe -->
      <!-- waves -->
      <path d="M8 60 C 16 56, 24 64, 32 60 S 48 64, 56 60 S 72 64, 80 60 S 96 64, 104 60" stroke="rgba(120,102,78,0.10)" stroke-width="1" fill="none"></path>
      <!-- fish (tiny) -->
      <path d="M44 60 l8 -4 l8 4 l-8 4 z" fill="none" stroke="rgba(120,102,78,0.10)" stroke-width="1"></path>
      <circle cx="48" cy="59" r="0.8" fill="rgba(120,102,78,0.10)"></circle>

      <!-- shells -->
      <path d="M92 64 q10 -10 20 0" transform="translate(-10,0)" stroke="rgba(120,102,78,0.10)" stroke-width="1" fill="none"></path>
      <path d="M84 64 q6 -8 12 0" stroke="rgba(120,102,78,0.10)" stroke-width="1" fill="none"></path>

      <!-- reeds (very minimal, hints of salt edge) -->
      <path d="M20 70 v-10 M24 70 v-8 M28 70 v-11" stroke="rgba(120,102,78,0.08)" stroke-width="1"></path>
      <circle cx="28" cy="58" r="0.9" fill="rgba(120,102,78,0.08)"></circle>
    </pattern>
  </defs>

  <rect width="420" height="420" fill="#f4f0e6"></rect>
  <rect width="420" height="420" filter="url(#grain)" opacity="1"></rect>
  <rect width="420" height="420" fill="url(#p)"></rect>
</svg>
